<?xml version="1.0" standalone="no"?>
<!DOCTYPE svg PUBLIC "-//W3C//DTD SVG 20010904//EN"
 "http://www.w3.org/TR/2001/REC-SVG-20010904/DTD/svg10.dtd">
<svg version="1.0" xmlns="http://www.w3.org/2000/svg"
 width="700.000000pt" height="700.000000pt" viewBox="0 0 700.000000 700.000000"
 preserveAspectRatio="xMidYMid meet">
<metadata>
Created by potrace 1.14, written by Peter Selinger 2001-2017
</metadata>
<g transform="translate(0.000000,700.000000) scale(0.100000,-0.100000)"
fill="#000000" stroke="none">
<path d="M1140 6990 c-108 -19 -179 -36 -253 -61 -75 -26 -242 -108 -305 -151
-180 -121 -338 -301 -439 -498 -41 -81 -96 -226 -107 -287 -2 -10 -10 -47 -17
-83 -12 -54 -14 -476 -14 -2400 0 -1284 3 -2355 7 -2380 15 -93 20 -113 42
-188 62 -206 169 -389 316 -541 203 -209 462 -341 765 -390 71 -12 4714 -10
4760 2 17 4 68 17 115 29 372 91 694 356 863 709 58 121 87 220 117 394 5 28
9 1090 8 2360 0 2601 7 2389 -80 2634 -107 300 -342 566 -630 715 -110 56
-262 110 -348 122 -14 1 -47 8 -75 13 -60 12 -4656 13 -4725 1z"/>
</g>
</svg>
